<svg version="1.1" id="Layer_1" xmlns="http://www.w3.org/2000/svg" xmlns:xlink="http://www.w3.org/1999/xlink" x="0px" y="0px"
	 width="100%" viewBox="0 0 414 416" enable-background="new 0 0 414 416" xml:space="preserve">
<path fill="#020101" opacity="1.000000" stroke="none" 
	d="
M233.000000,417.000000 
	C155.333344,417.000000 78.166687,417.000000 1.000021,417.000000 
	C1.000014,278.333374 1.000014,139.666718 1.000007,1.000058 
	C138.999954,1.000039 276.999908,1.000039 414.999908,1.000019 
	C414.999939,139.666611 414.999939,278.333221 414.999969,416.999908 
	C354.500000,417.000000 294.000000,417.000000 233.000000,417.000000 
M329.520782,193.324661 
	C340.614319,200.175354 350.431274,208.419937 358.035675,219.148926 
	C352.318634,205.495911 342.536194,195.443436 329.710541,187.178894 
	C326.470245,185.338745 323.229980,183.498611 319.600922,181.223602 
	C318.733093,180.818344 317.865234,180.413101 316.500671,179.488266 
	C313.706512,178.221161 311.015259,176.603683 308.100433,175.747330 
	C295.137512,171.938843 282.110626,168.348251 268.476807,164.264252 
	C257.147095,162.495102 245.796417,160.849365 234.492401,158.928925 
	C215.823212,155.757202 197.016769,153.124573 178.605057,148.822830 
	C169.783539,146.761780 161.033463,142.422745 153.508286,137.276840 
	C143.758591,130.609726 143.638702,117.637199 152.327866,109.535889 
	C156.033691,106.080772 160.404083,102.863991 165.058578,101.011635 
	C172.106216,98.206886 179.665909,96.688850 187.827698,94.725693 
	C193.217987,94.170135 198.608261,93.614571 204.823563,93.211243 
	C206.215866,93.150253 207.608154,93.089272 209.917999,93.184784 
	C223.001511,94.208939 236.132584,94.834702 249.152878,96.388527 
	C258.848694,97.545609 268.560852,101.911995 277.972626,101.163475 
	C287.415375,100.412498 296.610504,95.377037 305.685669,91.661301 
	C310.332062,89.758888 313.072540,90.312080 316.771332,94.033897 
	C329.711456,107.054665 351.951630,106.120049 363.742889,92.638222 
	C375.610809,79.068764 373.747040,58.265049 359.289459,46.872242 
	C348.789764,38.598293 337.028381,37.441460 324.998108,43.102047 
	C312.686493,48.895000 307.720520,59.468636 307.129944,72.605598 
	C307.048309,74.421379 306.279419,77.536903 305.277130,77.780418 
	C290.991669,81.251152 278.136292,91.006676 262.289948,87.769188 
	C260.712921,87.447014 258.976074,87.997810 257.322113,87.930153 
	C256.182770,87.883553 255.058502,87.468582 252.885117,86.987526 
	C256.732819,85.470924 259.439911,84.403900 262.782501,83.262947 
	C263.192322,83.157806 263.602142,83.052658 264.605835,82.910919 
	C264.890991,82.646118 265.176147,82.381325 265.706635,82.251083 
	C265.706635,82.251083 265.959869,82.131996 266.662537,82.201843 
	C267.242401,81.845734 267.822296,81.489632 269.061646,81.245560 
	C269.708984,81.101387 270.356323,80.957214 271.567352,80.833817 
	C272.044250,80.554985 272.521179,80.276154 273.776306,79.997696 
	C280.695435,77.634048 287.640717,75.342247 294.509033,72.839195 
	C295.716003,72.399330 297.234467,71.243362 297.531036,70.130768 
	C299.472443,62.847195 301.117340,55.484585 302.999084,47.558262 
	C301.719543,46.995880 299.625641,46.056557 297.516968,45.151623 
	C271.182129,33.850140 243.627167,28.456684 215.029480,27.810282 
	C179.604202,27.009552 145.141891,31.042606 113.696785,48.853642 
	C78.348434,68.875549 59.296200,98.658829 62.117584,140.148102 
	C63.836773,165.429214 76.052856,185.174530 98.028801,197.887619 
	C126.796799,214.529938 157.256607,212.592590 188.802887,204.219620 
	C205.557922,199.309860 222.288239,194.313675 239.074387,189.512650 
	C259.043335,183.801315 279.424438,180.691254 300.051270,184.107605 
	C309.913635,185.741074 319.360229,189.885010 329.520782,193.324661 
M118.441750,242.061264 
	C136.104645,244.084198 153.753677,246.239517 171.434418,248.092117 
	C188.467865,249.876862 205.600815,250.851425 222.563278,253.126892 
	C234.578323,254.738693 246.383194,257.884857 256.897430,264.516846 
	C269.341278,272.365997 271.899414,285.547333 262.459747,296.825378 
	C259.374329,300.511658 254.965454,303.436737 250.624741,305.662415 
	C236.170059,313.073822 220.289474,314.325836 204.467392,314.541656 
	C181.200455,314.858978 158.354095,311.303711 136.041550,304.689514 
	C132.016022,303.496216 128.410110,303.448120 124.461464,304.807465 
	C117.714012,307.130432 110.766991,308.877197 104.034676,311.239044 
	C100.874229,312.347809 99.186493,311.805511 97.000343,309.144562 
	C88.937851,299.330933 78.603905,294.664825 65.700417,296.767609 
	C51.532513,299.076416 40.363258,310.459717 39.063286,323.956360 
	C37.532185,339.852631 45.403561,352.647125 60.084705,358.125458 
	C73.531090,363.143036 89.089928,358.190216 97.415344,346.620422 
	C102.006042,340.240784 103.630875,333.157501 103.515686,325.544617 
	C111.607819,323.004089 119.478210,320.878082 127.088303,318.051331 
	C135.450806,314.945099 143.515594,316.045807 152.402496,318.453735 
	C150.383789,319.134705 149.012360,319.613861 147.630508,320.060822 
	C136.734238,323.585266 125.820930,327.058472 114.960434,330.689697 
	C113.806549,331.075470 112.125435,332.348541 112.095963,333.255707 
	C111.765083,343.439087 106.078949,351.012360 99.276741,359.514923 
	C112.106789,364.483124 124.242493,369.965942 136.858047,373.916351 
	C170.662598,384.501801 205.239655,385.521545 240.100494,380.458282 
	C266.933075,376.561035 292.149872,368.273743 314.293121,352.108887 
	C339.878937,333.431000 354.672272,308.727753 355.290710,276.571442 
	C355.813812,249.369919 346.416718,227.008698 321.993317,212.799896 
	C303.654297,202.130783 283.573730,200.593842 263.426331,204.662521 
	C243.766098,208.632812 224.460022,214.411392 205.075882,219.680878 
	C178.795456,226.825089 152.440247,233.451065 124.890587,229.062927 
	C89.120316,223.365402 63.146439,205.001190 50.304195,170.138901 
	C49.750587,168.636032 49.006710,167.203278 48.351467,165.737854 
	C47.847034,165.902588 47.342602,166.067307 46.838169,166.232040 
	C47.211796,169.228180 47.464642,172.245209 47.978394,175.217148 
	C51.674927,196.600662 62.158073,213.605316 80.278473,225.877518 
	C91.739349,233.639496 104.328545,238.551468 118.441750,242.061264 
z"/>
<path fill="#FDFCFD" opacity="1.000000" stroke="none" 
	d="
M118.032578,241.997009 
	C104.328545,238.551468 91.739349,233.639496 80.278473,225.877518 
	C62.158073,213.605316 51.674927,196.600662 47.978394,175.217148 
	C47.464642,172.245209 47.211796,169.228180 46.838169,166.232040 
	C47.342602,166.067307 47.847034,165.902588 48.351467,165.737854 
	C49.006710,167.203278 49.750587,168.636032 50.304195,170.138901 
	C63.146439,205.001190 89.120316,223.365402 124.890587,229.062927 
	C152.440247,233.451065 178.795456,226.825089 205.075882,219.680878 
	C224.460022,214.411392 243.766098,208.632812 263.426331,204.662521 
	C283.573730,200.593842 303.654297,202.130783 321.993317,212.799896 
	C346.416718,227.008698 355.813812,249.369919 355.290710,276.571442 
	C354.672272,308.727753 339.878937,333.431000 314.293121,352.108887 
	C292.149872,368.273743 266.933075,376.561035 240.100494,380.458282 
	C205.239655,385.521545 170.662598,384.501801 136.858047,373.916351 
	C124.242493,369.965942 112.106789,364.483124 99.276741,359.514923 
	C106.078949,351.012360 111.765083,343.439087 112.095963,333.255707 
	C112.125435,332.348541 113.806549,331.075470 114.960434,330.689697 
	C125.820930,327.058472 136.734238,323.585266 147.630508,320.060822 
	C149.012360,319.613861 150.383789,319.134705 152.402496,318.453735 
	C143.515594,316.045807 135.450806,314.945099 127.088303,318.051331 
	C119.478210,320.878082 111.607819,323.004089 103.515686,325.544617 
	C103.630875,333.157501 102.006042,340.240784 97.415344,346.620422 
	C89.089928,358.190216 73.531090,363.143036 60.084705,358.125458 
	C45.403561,352.647125 37.532185,339.852631 39.063286,323.956360 
	C40.363258,310.459717 51.532513,299.076416 65.700417,296.767609 
	C78.603905,294.664825 88.937851,299.330933 97.000343,309.144562 
	C99.186493,311.805511 100.874229,312.347809 104.034676,311.239044 
	C110.766991,308.877197 117.714012,307.130432 124.461464,304.807465 
	C128.410110,303.448120 132.016022,303.496216 136.041550,304.689514 
	C158.354095,311.303711 181.200455,314.858978 204.467392,314.541656 
	C220.289474,314.325836 236.170059,313.073822 250.624741,305.662415 
	C254.965454,303.436737 259.374329,300.511658 262.459747,296.825378 
	C271.899414,285.547333 269.341278,272.365997 256.897430,264.516846 
	C246.383194,257.884857 234.578323,254.738693 222.563278,253.126892 
	C205.600815,250.851425 188.467865,249.876862 171.434418,248.092117 
	C153.753677,246.239517 136.104645,244.084198 118.032578,241.997009 
M55.837414,332.411469 
	C59.372284,341.978363 67.366928,346.008331 76.772896,342.964722 
	C84.460182,340.477234 88.822662,332.250702 86.725349,324.196899 
	C84.541489,315.810699 76.334747,311.101929 67.251534,313.023438 
	C59.043564,314.759766 54.091171,322.724792 55.837414,332.411469 
z"/>
<path fill="#DA1916" opacity="1.000000" stroke="none" 
	d="
M209.000458,93.028290 
	C207.608154,93.089272 206.215866,93.150253 204.442596,92.784630 
	C205.936981,88.423805 202.530151,87.095467 200.415298,85.292374 
	C198.280960,83.472641 196.170395,83.913673 194.358902,86.071121 
	C191.941727,88.949913 189.461304,91.775604 187.008041,94.624100 
	C179.665909,96.688850 172.106216,98.206886 165.058578,101.011635 
	C160.404083,102.863991 156.033691,106.080772 152.327866,109.535889 
	C143.638702,117.637199 143.758591,130.609726 153.508286,137.276840 
	C161.033463,142.422745 169.783539,146.761780 178.605057,148.822830 
	C197.016769,153.124573 215.823212,155.757202 234.492401,158.928925 
	C245.796417,160.849365 257.147095,162.495102 268.757935,164.869476 
	C266.308899,171.904755 262.557465,177.156570 254.874435,178.027466 
	C251.625412,178.395767 249.083160,179.495270 250.706543,183.915054 
	C246.341675,183.003952 242.591827,182.030640 238.781494,181.464493 
	C230.173203,180.185471 222.036270,181.034012 214.668472,186.452301 
	C212.586670,187.983231 209.566345,188.347672 206.910706,188.963623 
	C202.582748,189.967422 197.935669,190.121429 193.941025,191.838547 
	C191.547729,192.867325 189.784973,195.996658 188.419907,198.546494 
	C187.598938,200.079987 188.087128,202.314331 187.986984,204.233719 
	C157.256607,212.592590 126.796799,214.529938 98.028801,197.887619 
	C76.052856,185.174530 63.836773,165.429214 62.117584,140.148102 
	C59.296200,98.658829 78.348434,68.875549 113.696785,48.853642 
	C145.141891,31.042606 179.604202,27.009552 215.029480,27.810282 
	C243.627167,28.456684 271.182129,33.850140 297.516968,45.151623 
	C299.625641,46.056557 301.719543,46.995880 302.999084,47.558262 
	C301.117340,55.484585 299.472443,62.847195 297.531036,70.130768 
	C297.234467,71.243362 295.716003,72.399330 294.509033,72.839195 
	C287.640717,75.342247 280.695435,77.634048 273.227264,79.775536 
	C272.120026,79.973267 271.561859,80.393158 271.003662,80.813049 
	C270.356323,80.957214 269.708984,81.101387 268.373840,81.171814 
	C267.110657,81.442711 266.535248,81.787354 265.959869,82.131996 
	C265.959869,82.131996 265.706635,82.251083 265.291840,82.225296 
	C264.588684,82.448845 264.300323,82.698189 264.011963,82.947517 
	C263.602142,83.052658 263.192322,83.157806 262.314514,82.966026 
	C258.090759,79.616470 254.335007,76.563835 251.205276,74.020027 
	C247.164368,76.206772 243.220413,78.282623 239.347778,80.483948 
	C238.531601,80.947899 238.034744,81.940117 237.290970,82.571320 
	C235.147064,84.390717 233.161530,87.248398 230.734985,87.710945 
	C225.184204,88.769035 219.411972,88.771637 213.721802,88.947823 
	C210.830368,89.037338 208.750107,89.546021 209.000458,93.028290 
z"/>
<path fill="#DB1815" opacity="1.000000" stroke="none" 
	d="
M209.459229,93.106537 
	C208.750107,89.546021 210.830368,89.037338 213.721802,88.947823 
	C219.411972,88.771637 225.184204,88.769035 230.734985,87.710945 
	C233.161530,87.248398 235.147064,84.390717 237.290970,82.571320 
	C238.034744,81.940117 238.531601,80.947899 239.347778,80.483948 
	C243.220413,78.282623 247.164368,76.206772 251.205276,74.020027 
	C254.335007,76.563835 258.090759,79.616470 261.996765,83.002991 
	C259.439911,84.403900 256.732819,85.470924 252.885117,86.987526 
	C255.058502,87.468582 256.182770,87.883553 257.322113,87.930153 
	C258.976074,87.997810 260.712921,87.447014 262.289948,87.769188 
	C278.136292,91.006676 290.991669,81.251152 305.277130,77.780418 
	C306.279419,77.536903 307.048309,74.421379 307.129944,72.605598 
	C307.720520,59.468636 312.686493,48.895000 324.998108,43.102047 
	C337.028381,37.441460 348.789764,38.598293 359.289459,46.872242 
	C373.747040,58.265049 375.610809,79.068764 363.742889,92.638222 
	C351.951630,106.120049 329.711456,107.054665 316.771332,94.033897 
	C313.072540,90.312080 310.332062,89.758888 305.685669,91.661301 
	C296.610504,95.377037 287.415375,100.412498 277.972626,101.163475 
	C268.560852,101.911995 258.848694,97.545609 249.152878,96.388527 
	C236.132584,94.834702 223.001511,94.208939 209.459229,93.106537 
M355.002045,67.709999 
	C351.463440,57.793663 342.915497,53.308441 333.823364,56.597256 
	C325.917877,59.456844 321.504822,67.544044 323.618591,75.298218 
	C325.986725,83.985756 333.627167,88.884941 342.163177,87.189445 
	C351.315674,85.371506 356.342041,78.108063 355.002045,67.709999 
z"/>
<path fill="#DF1A17" opacity="1.000000" stroke="none" 
	d="
M188.394928,204.226669 
	C188.087128,202.314331 187.598938,200.079987 188.419907,198.546494 
	C189.784973,195.996658 191.547729,192.867325 193.941025,191.838547 
	C197.935669,190.121429 202.582748,189.967422 206.910706,188.963623 
	C209.566345,188.347672 212.586670,187.983231 214.668472,186.452301 
	C222.036270,181.034012 230.173203,180.185471 238.781494,181.464493 
	C242.591827,182.030640 246.341675,183.003952 250.706543,183.915054 
	C249.083160,179.495270 251.625412,178.395767 254.874435,178.027466 
	C262.557465,177.156570 266.308899,171.904755 269.072968,165.076782 
	C282.110626,168.348251 295.137512,171.938843 308.100433,175.747330 
	C311.015259,176.603683 313.706512,178.221161 316.742523,180.131744 
	C316.761597,182.386841 316.538788,183.998459 316.316010,185.610092 
	C316.840790,185.804214 317.365601,185.998337 317.890411,186.192459 
	C318.590149,184.681122 319.289917,183.169800 319.989685,181.658478 
	C323.229980,183.498611 326.470245,185.338745 329.880859,187.825134 
	C329.699158,189.944901 329.347137,191.418396 328.995117,192.891891 
	C319.360229,189.885010 309.913635,185.741074 300.051270,184.107605 
	C279.424438,180.691254 259.043335,183.801315 239.074387,189.512650 
	C222.288239,194.313675 205.557922,199.309860 188.394928,204.226669 
z"/>
<path fill="#D21512" opacity="1.000000" stroke="none" 
	d="
M329.257965,193.108276 
	C329.347137,191.418396 329.699158,189.944901 330.088440,188.085159 
	C342.536194,195.443436 352.318634,205.495911 358.035675,219.148926 
	C350.431274,208.419937 340.614319,200.175354 329.257965,193.108276 
z"/>
<path fill="#DB1815" opacity="1.000000" stroke="none" 
	d="
M187.417877,94.674896 
	C189.461304,91.775604 191.941727,88.949913 194.358902,86.071121 
	C196.170395,83.913673 198.280960,83.472641 200.415298,85.292374 
	C202.530151,87.095467 205.936981,88.423805 204.030090,92.708511 
	C198.608261,93.614571 193.217987,94.170135 187.417877,94.674896 
z"/>
<path fill="#D21512" opacity="1.000000" stroke="none" 
	d="
M319.795288,181.441040 
	C319.289917,183.169800 318.590149,184.681122 317.890411,186.192459 
	C317.365601,185.998337 316.840790,185.804214 316.316010,185.610092 
	C316.538788,183.998459 316.761597,182.386841 316.990906,180.391541 
	C317.865234,180.413101 318.733093,180.818344 319.795288,181.441040 
z"/>
<path fill="#DB1815" opacity="1.000000" stroke="none" 
	d="
M271.285522,80.823433 
	C271.561859,80.393158 272.120026,79.973267 272.838135,79.775345 
	C272.521179,80.276154 272.044250,80.554985 271.285522,80.823433 
z"/>
<path fill="#DB1815" opacity="1.000000" stroke="none" 
	d="
M266.311218,82.166916 
	C266.535248,81.787354 267.110657,81.442711 268.044128,81.115799 
	C267.822296,81.489632 267.242401,81.845734 266.311218,82.166916 
z"/>
<path fill="#DB1815" opacity="1.000000" stroke="none" 
	d="
M264.308899,82.929222 
	C264.300323,82.698189 264.588684,82.448845 265.169159,82.158012 
	C265.176147,82.381325 264.890991,82.646118 264.308899,82.929222 
z"/>
<path fill="#040404" opacity="1.000000" stroke="none" 
	d="
M55.761345,332.018555 
	C54.091171,322.724792 59.043564,314.759766 67.251534,313.023438 
	C76.334747,311.101929 84.541489,315.810699 86.725349,324.196899 
	C88.822662,332.250702 84.460182,340.477234 76.772896,342.964722 
	C67.366928,346.008331 59.372284,341.978363 55.761345,332.018555 
z"/>
<path fill="#040100" opacity="1.000000" stroke="none" 
	d="
M355.055847,68.095436 
	C356.342041,78.108063 351.315674,85.371506 342.163177,87.189445 
	C333.627167,88.884941 325.986725,83.985756 323.618591,75.298218 
	C321.504822,67.544044 325.917877,59.456844 333.823364,56.597256 
	C342.915497,53.308441 351.463440,57.793663 355.055847,68.095436 
z"/>
</svg>